<svg
                width="20"
                height="21"
                viewBox="0 0 20 21"
                fill="none"
                xmlns="http://www.w3.org/2000/svg"
              >
                <path
                  d="M2.9125 11.3452C2.9125 9.84896 4.12875 8.63271 5.625 8.63271H9.125V6.97021H5.625C3.21 6.97021 1.25 8.93021 1.25 11.3452C1.25 13.7602 3.21 15.7202 5.625 15.7202H9.125V14.0577H5.625C4.12875 14.0577 2.9125 12.8415 2.9125 11.3452ZM6.5 12.2202H13.5V10.4702H6.5V12.2202ZM14.375 6.97021H10.875V8.63271H14.375C15.8713 8.63271 17.0875 9.84896 17.0875 11.3452C17.0875 12.8415 15.8713 14.0577 14.375 14.0577H10.875V15.7202H14.375C16.79 15.7202 18.75 13.7602 18.75 11.3452C18.75 8.93021 16.79 6.97021 14.375 6.97021Z"
                  fill="#64748B"
                />
              </svg>
