<svg width="15" height="14" viewBox="0 0 15 14" fill="none" xmlns="http://www.w3.org/2000/svg">
<path fill-rule="evenodd" clip-rule="evenodd" d="M7.5143 0.150597C11.1172 0.150597 14.0625 3.07673 14.0625 6.68469C14.0625 10.2642 11.1172 13.1904 7.5143 13.1904C6.4277 13.1904 5.34109 12.9347 4.39747 12.4233L1.4808 13.2756C1.16626 13.3608 0.851716 13.0483 0.966095 12.7358L1.79534 9.89491C1.22345 8.929 0.9375 7.82105 0.9375 6.68469C0.9375 3.07673 3.88276 0.150597 7.5143 0.150597ZM7.5143 1.00287C4.34028 1.00287 1.79534 3.53128 1.79534 6.68469C1.79534 7.70741 2.08129 8.73014 2.62459 9.61082C2.68178 9.72446 2.71038 9.83809 2.65319 9.98014L1.99551 12.2529L4.31168 11.571C4.42606 11.5426 4.54044 11.5426 4.65482 11.5995C5.51266 12.1108 6.51348 12.3665 7.5143 12.3665C10.6597 12.3665 13.2333 9.80969 13.2333 6.68469C13.2333 3.53128 10.6597 1.00287 7.5143 1.00287ZM11.4375 6.2756H3.5625V5.4006H11.4375V6.2756ZM3.5625 8.9006H8.8125V8.0256H3.5625V8.9006Z" fill="white"/>
</svg>
